<svg width="1200" height="600" viewBox="0 0 1200 600" fill="none" xmlns="http://www.w3.org/2000/svg">
  <defs>
    <linearGradient id="bg" x1="0" y1="0" x2="1" y2="1">
      <stop offset="0%" stop-color="#EFF6FF"/>
      <stop offset="100%" stop-color="#F5F3FF"/>
    </linearGradient>
    <linearGradient id="g" x1="0" y1="0" x2="1" y2="1">
      <stop offset="0%" stop-color="#2563EB"/>
      <stop offset="100%" stop-color="#7C3AED"/>
    </linearGradient>
  </defs>
  <rect width="1200" height="600" fill="url(#bg)"/>
  <g opacity="0.12">
    <circle cx="1000" cy="-50" r="250" fill="url(#g)"/>
    <circle cx="-50" cy="550" r="250" fill="url(#g)"/>
  </g>
  <g transform="translate(200,140)">
    <rect x="0" y="0" width="800" height="360" rx="24" fill="white" stroke="#E5E7EB"/>
    <rect x="40" y="40" width="300" height="20" rx="10" fill="#E0E7FF"/>
    <rect x="40" y="80" width="500" height="20" rx="10" fill="#DDD6FE"/>
    <rect x="40" y="120" width="560" height="14" rx="7" fill="#E5E7EB"/>
    <rect x="40" y="150" width="520" height="14" rx="7" fill="#E5E7EB"/>
    <rect x="40" y="180" width="480" height="14" rx="7" fill="#E5E7EB"/>
    <rect x="40" y="230" width="280" height="36" rx="10" fill="#2563EB" opacity="0.9"/>
    <rect x="340" y="230" width="220" height="36" rx="10" fill="#ffffff" stroke="#E5E7EB"/>
  </g>
</svg>

